<?xml version="1.0" encoding="UTF-8"?>
<svg version="1.1" viewBox="0 0 2048 2048" width="512" height="512" xmlns="http://www.w3.org/2000/svg">
<path transform="translate(1008,84)" d="m0 0h33l36 3 26 4 23 5 26 7 28 10 32 14 26 14 21 13 17 12 13 10 13 11 11 9 27 27 7 8 9 11 14 18 14 21 8 13 10 18 8 16 10 22 9 25 6 19 8 31 185 1 25 2 22 4 25 7 25 10 23 12 18 12 13 10 14 12 17 17 18 22 12 18 10 18 10 21 9 27 5 22 3 21 1 10v33l-14 224-7 110-7 115-9 142-6 100-7 112-4 62-4 34-6 31-7 26-11 32-12 28-10 19-10 18-9 14-12 17-9 12-18 22h-2l-2 4-26 26-8 7-16 13-19 14-12 8-21 13-29 15-27 12-36 12-32 8-29 5-29 3-18 1h-774l-30-2-29-4-29-6-28-8-26-9-27-12-24-12-20-12-18-12-16-12-16-13-12-11-8-7-17-17-7-8-12-14-15-20-16-24-12-21-11-21-12-28-12-36-6-24-5-26-4-33-5-75-15-242-16-257-16-256-3-51v-18l3-29 5-24 8-26 11-25 11-20 11-16 10-13 10-12h2l2-4 8-8h2v-2l22-18 12-8 15-9 17-9 20-8 18-6 27-6 15-2 15-1 191-1 4-13 8-29 9-26 13-30 9-17 6-11 10-17 8-12 10-14 11-14 12-14 9-10 5-6 8-7 12-12 11-9 13-11 14-10 24-16 17-10 25-13 21-9 24-9 30-9 28-6 26-4 18-2zm12 172-28 2-19 3-30 8-20 8-19 9-17 10-14 10-13 10-17 16-10 10-8 10-9 12-10 15-12 22-8 19-2 6h479l-1-5-9-21-10-19-9-14-12-16-11-13-18-18-14-11-18-13-25-14-21-9-24-8-28-6-18-2zm-193 341-58 1-1 27-1 154-3 14-6 15-7 11-11 12-12 9-14 7-19 5-7 1h-11l-14-2-12-4-14-7-13-10-9-10-8-13-4-8-4-14-1-6-1-34v-147h-181l-15 3-12 5-12 7-12 11-8 9-8 14-6 18-1 6v27l15 245 26 418 11 174 3 35 4 22 6 22 8 22 9 19 13 22 11 15 11 13 11 12 15 14 17 13 15 10 20 11 23 10 21 7 22 5 22 3 12 1h776l26-3 23-5 30-10 20-9 18-10 19-13 11-9 14-12 11-11 9-11 11-14 10-15 12-22 10-24 8-27 5-27 2-21 11-173 6-97 10-156 7-111 8-127 12-191v-18l-2-12-4-13-7-14-8-10-10-10-14-9-11-5-11-3-7-1-70-1h-76l-35 1-1 179-3 15-6 15-9 14-9 10-14 10-13 6-13 4-13 2h-10l-14-2-15-5-13-7-11-9-7-7-7-10-8-16-3-10-2-19-1-170-96-1z"/>
</svg>
